<svg width="6536" height="3677" viewBox="0 0 6536 3677" fill="none" xmlns="http://www.w3.org/2000/svg">
<g clip-path="url(#clip0_366_5)">
<path d="M4011 888.998C4403 687.998 4361 275.998 4773.5 -53.502H5313.5C4956 654.998 4823.5 316.998 4408 864.998C4065.54 1316.67 3348 1209.5 2966.5 1474.5C3096 1251.5 3432 1261.5 3648.5 1148C3461 1173.5 2761.22 1226 2711 1678.5C2617 2525.5 2329 2436.5 2058 2690C2478.5 2635 2682 2431.5 2837 1998.5C2850 2156.83 2784.8 2516.8 2420 2690C1808 2980.56 1342 2651.5 1139.5 3033L1301.5 2987.5C1114 3049 726 3417.5 726 3754H-105C90.5 3327.5 296.4 3547 687 2884C955.943 2427.5 1488.5 2637.5 1899.5 2525.5C1749.5 2538.7 1662.33 2507.33 1637.5 2490C2630 2503 1996.5 1843 2462 1416.5C2927.5 989.998 3001 1131.5 3609 961.498L3469.5 1038.5C3519.33 1055.66 3697.4 1049.8 4011 888.998Z" fill="#861618"/>
<path d="M-276.504 2988.43C18.4961 2368.43 325.996 2425.93 496.996 2245.93C667.996 2065.93 692.996 1969.43 1022 1891.93C1351 1814.43 1463.5 1885.43 1578 1717.93C1692.5 1550.43 1586.5 1550.43 1503 1466.43C1436.2 1399.23 1508.5 1299.76 1553 1258.43C1335.5 1348.43 1550 1565.93 1419.5 1683.93C1438 1500.43 1242 1510.43 1341.5 1258.43C1441 1006.43 1981.5 1031.93 2130.5 1053.43C2249.7 1070.63 2432.83 1033.6 2509.5 1012.93C2260.35 997.574 2083.82 920.883 1972.14 943.754C1971.1 943.976 1970.05 944.201 1969 944.429C1970.04 944.195 1971.09 943.97 1972.14 943.754C2211.77 892.869 2243.66 1000.35 2509.5 981.93C2776.5 963.43 2789 863.93 3112 854.43C2764 944.429 2795 1031.43 2394.5 1105.93C1994 1180.43 1882 1093.43 1730 1239.43C1578 1385.43 1879 1460.43 1863.5 1624.93C1848 1789.43 1733.5 2090.43 1196 2245.93C765.996 2370.33 550.829 2548.43 496.996 2621.93L596.496 2428.93C338.496 2546.93 263.996 3081.43 -276.504 3584.43V2988.43Z" fill="#861618"/>
<path d="M3259.32 422.998C3487.82 213.998 3682.32 322.998 3820.32 -48.002H3363.82C3225.82 165.998 3373.32 189.998 3087.82 360.998C2802.32 531.998 2621.82 322.998 2146.32 684.498C2540.82 384.998 3030.82 631.998 3259.32 422.998Z" fill="#861618"/>
<path d="M1432.5 218.496C1518.17 170.829 1691.4 62.3961 1699 -86.0039H2617C2598 113.996 2222 8.99609 2060.5 218.496C1899 427.996 1589.5 493.996 1356.5 484.496C1123.5 474.996 886 617.996 862 888.996L962 812.996C795.5 1008 976 1164.5 781 1478.5C586 1792.5 125 1688 -198.5 2206V1626C-166.833 1603.83 -25.5 1513.8 286.5 1331C676.5 1102.5 362.5 1055.5 691 617.996C1019.5 180.496 1323.5 427.496 1589.5 175.496L1432.5 218.496Z" fill="#861618"/>
<path d="M396 270.496C615 27.9961 928.5 237.496 1128.5 -95.5039H-89V1050.5C339 760.496 334 470.475 524.5 365.496C334.5 422.496 305.5 546.496 63 617.996C101 582.996 220.8 464.496 396 270.496Z" fill="#861618"/>
<path d="M5785.33 3459.92C5711.73 3530.32 5599 3651.58 5551.83 3703.42H5954.33C6125.13 3434.22 6442.5 3276.42 6579.83 3226.42V3089.42C6501.83 3105.42 6282.83 3318.92 5954.33 3428.92C6013.33 3283.92 6211.33 3195.92 6221.33 3122.42C6202.33 3163.42 5877.33 3371.92 5785.33 3459.92Z" fill="#861618"/>
<path d="M5269.83 3358.92C5228.33 3452.92 5004.83 3615.92 4991.83 3746.92H4279.33C4323.83 3526.92 4672.33 3492.92 4763.83 3298.92L4695.83 3335.42C4729.83 3277.92 4818.4 3095.1 5149.33 3028.92C5699.33 2918.92 5856.83 2811.42 6047.83 2434.42C6127.61 2276.95 6444 2157.75 6566.33 2112.42V2169.92C6189.33 2306.42 6065.83 2787.92 5832.83 2950.42C5599.83 3112.92 5133.33 3235.92 5109.83 3492.92C5141.33 3443.42 5214.83 3413.92 5269.83 3358.92Z" fill="#861618"/>
<path d="M4135.32 3157.93C3920.82 3314.43 3466.82 3490.93 3405.82 3800.43H2386.82C2706.32 2979.43 3458.32 3563.43 3596.82 2697.93C3552.42 2740.73 3521.32 2811.76 3511.32 2841.93C3507.48 2804.6 3536.42 2672.13 3682.82 2440.93C4032.82 1864.43 4721.32 2235.43 5080.82 1910.43C4715.82 2336.43 4483.32 2024.43 4154.32 2273.43C4540.32 2153.43 5067.32 2315.43 5274.82 1993.93C5221.62 2065.53 5081.32 2105.1 5017.82 2115.93C5172.32 1993.93 5282.39 1932.43 5341.32 1782.93C5503.32 1371.93 5666.18 1417.93 5843.32 1234.93C5753.82 1420.93 5447.82 1478.43 5464.82 1738.93C5656.82 1521.93 5856.82 1497.43 6107.82 1078.93C6308.62 744.129 6536.15 664.429 6624.82 666.429V974.429C6185.32 1428.93 6278.82 1524.43 6183.82 1640.43C6319.42 1632.83 6429.32 1519.26 6467.32 1463.43C6345.82 2037.93 5818.82 1666.93 5748.32 2166.93C5691.92 2566.93 5368.48 2675.93 5213.82 2680.43C5556.32 2615.43 5656.82 2332.43 5656.82 2166.93C5580.15 2233.6 5366.32 2392.43 5124.32 2494.43C4821.82 2621.93 4178.32 2306.93 3923.82 2841.93L4077.32 2762.01C4078.66 2761.28 4079.99 2760.59 4081.32 2759.93L4077.32 2762.01C3940.95 2835.77 3718.67 3233.49 3499.82 3341.43C3606.32 3345.12 3944.26 3211.93 4043.82 3099.93C4268.32 2847.36 4342.82 2719.43 4754.32 2719.43C4254.82 2736.43 4349.82 3001.43 4135.32 3157.93Z" fill="#861618"/>
<path d="M1515.86 3429.4C1419.2 3458.24 1213.76 3570.4 1165.36 3788.4H1915.86C2016.86 3134.4 2694.36 3190.9 3006.86 2965.9C2918.03 2988.4 2652.06 3048.7 2298.86 3109.9C1945.66 3171.1 1695.03 3348.4 1613.86 3429.4L1676.36 3416.4C1558.36 3485.4 1563.36 3576.4 1359.86 3615.4C1370.26 3560.2 1468.2 3468.4 1515.86 3429.4Z" fill="#861618"/>
<path d="M3160.32 2429C3039.32 2572.5 2888.82 2478.5 2718.32 2673.5C2848.32 2579.5 2805.82 2626.5 3079.32 2525.5C3352.82 2424.5 3245.82 2215 3662.32 1877.5C4098.54 1524.02 4541.32 1980.5 4931.82 1397.5C5322.32 814.498 5696.32 756.498 5897.82 675.498C6099.32 594.498 6088.82 491.998 6182.82 388.498C6043.82 475.998 6088.82 482.998 5983.32 527.498C6122.32 367.998 6124.32 256.498 6288.32 139.998L6202.82 177.998C6244.02 104.398 6394.98 -6.66862 6465.32 -53.002H5945.32C5824.32 92.998 5794.82 247.498 5732.32 374.998C5682.32 476.998 5466.15 625.498 5364.32 686.998L5505.82 653.498C5322.32 826.498 5059.32 785.498 4866.82 966.998C4674.32 1148.5 4725.32 1377.5 4492.32 1525.5C4259.32 1673.5 4088.32 1575 3900.32 1660C3960.82 1523 4030.32 1411 4207.32 1288C3956.32 1373.5 3902.32 1570.5 3637.82 1797C3373.32 2023.5 3281.32 2285.5 3160.32 2429Z" fill="#861618"/>
</g>
<defs>
<clipPath id="clip0_366_5">
<rect width="6537" height="3677" fill="white"/>
</clipPath>
</defs>
</svg>
