<svg width="6536" height="3677" viewBox="0 0 6536 3677" fill="none" xmlns="http://www.w3.org/2000/svg">
<path d="M116.5 1162L0.5 1082V1759L94 1826L192.5 1795H366.5L572 1831.5H746L884.5 1872L1031.5 1831.5L1143 1765H1031.5L786 1640L487 1519L255 1318.5L116.5 1162Z" fill="#E12C28"/>
<path d="M5236.44 2196L5170.5 2247.5L5187.5 2169L5170.5 2127V2063L5236.44 2003L5226 2074L5264 2127L5236.44 2196Z" fill="#E12C28"/>
<path fill-rule="evenodd" clip-rule="evenodd" d="M3774 3677L3984.46 3448.07L4076.63 3373.55L4191.07 3312.09V3373.55L4344.69 3263.69L4480.64 3083.92L4625.81 2934.12L4700.31 2775.86L4832.43 2618.38L4906.93 2569.98L4933.05 2618.38L4999.1 2473.18L5099.82 2320.32L5327.5 2279V2210.46L5367.89 2117.5L5327.5 2063L5398.61 1986.9V1849L5367.89 1675L5447 1828.65L5498 1910.5L5476 2003L5398.61 2063L5417.5 2117.5L5398.61 2210.46V2373.32L5297.89 2516.97V2697.5L5236.44 2934.12L5297.89 2894.94V3153.83L5377 3191.5L5446 3519.5L5377 3677H4393L4439.5 3606V3541.5L4468.5 3465.5L4344.69 3581L4299.5 3677H3774ZM5032 3233L5007 3293.5L4954.5 3347L4975.5 3282.5V3250.5L4940.5 3221.5L4933.05 3191.5L4973.5 3147L5005 3083.92V3174L4999.5 3209L5032 3233Z" fill="#E12C28"/>
<path d="M3391.54 1157L3391.54 1243.52L3449 1190.5L3554.5 1170.96L3635 1118L3666 1029L3666 948.281L3595.89 1060.87L3449 1090.5L3391.54 1157Z" fill="#E12C28"/>
<path fill-rule="evenodd" clip-rule="evenodd" d="M2575 163.468L2663.41 7.72905e-06L3304.5 6.37749e-05L3278.5 75.5001L3273 146.5L3325 95.5001L3383.5 67.5001L3409 7.29106e-05L4407.5 0.000160202L4386 67.5002L4302.5 112.5L4169 146.5L4033 250L4185.5 163.468L4338.5 129L4445.5 67.5002L4467 0.000165404L4882 0.000201684L4855.31 85.9043L4716.02 231.024L4484.99 295.243L4260.5 413.5L4114.5 447L3970.5 495L3799.39 437.86L3595.89 512.922L3426.57 598.826L3369.86 689.734L3391.54 781.477L3426.57 845.696L3338.16 948.281L3213.89 1060.87L3085.44 1170.96L3085.44 1243.52L3230.57 1305.24L3281.45 1358.62L3297.29 1472.04L3313.97 1619.67L3369.86 1675.55L3338.16 1761.45L3238.07 1834.01L3149.66 1912.41L3085.44 2025L3114.63 1912.41L3179.69 1823.17L3230.57 1734.76L3230.57 1662.2L3213.89 1406.99L3179.69 1358.62C3151.89 1343.61 3094.12 1311.91 3085.44 1305.24C3076.77 1298.57 2947.27 1212.94 2883.6 1170.96L2824.38 929.098L2714.29 781.477L2625.88 458.711L2625.88 231.023L2575 163.468ZM2922 495L2922 447L2946.5 397.5L2989.5 343L2999.5 295.243L3004.5 329.5L3001.5 358L2969.5 400L2940.5 449.5L2931.5 477L2922 495ZM3409 358L3486 321.932L3615.5 273.559L3702.5 200.5L3724.5 142L3666 182L3589 250L3470.5 301L3409 358Z" fill="#E12C28"/>
<path d="M2122.59 3636.5L2159 3556.29L2118.2 3471.87L2080.98 3392.66L2135.22 3328.17L2133.62 3283.69L2186.93 3111.17L2211.63 2944.1L2122.59 2977.06L2098.6 3082.17L2025.37 3143.94L1900.77 3321.53L1750.79 3386.27L1678.95 3465.24L1587.19 3556.29L1335 3679L2039.97 3679L2122.59 3636.5Z" fill="#E12C28"/>
<path d="M3746.58 2991L3820.01 2896.97L3722.3 2985.44L3679.66 3010.26L3620.79 3051.02L3621.91 3121.65L3597.17 3154.11L3596.07 3201.82L3550.48 3251.52L3453.56 3271.37L3388.06 3315.33L3321.38 3342.12L3296.83 3416.69L3307.34 3506.36L3283.29 3573.58L3379.8 3522.96L3469.79 3382.41L3521.4 3345.88L3628.92 3269.49L3654.71 3215.25L3691.68 3162L3681.49 3098.34L3710.49 3036.98L3746.58 2991Z" fill="white"/>
<path d="M5264.77 512.096L5213.49 600.24L5275.72 567.603L5337.35 514.731L5397.79 485.842L5456.26 391.19L5500.51 310.37L5611.49 288.465L5637.23 173.984L5676.7 111.916L5537.41 102.092L5432.91 139.679L5397.3 221.336L5368.3 336.462L5307.94 468.803L5264.77 512.096Z" fill="white"/>
<path d="M1349.57 122.953L1390.58 227.796L1450.65 292.651L1439.03 199.073L1450.65 108.169L1468.6 159.428L1515.12 265.149L1565.18 310.419L1600.82 310.419L1737.38 358.055L1870.39 382.637L1846.57 310.419L1763.13 288.187L1715.8 227.796L1577.24 122.953L1529.74 1.04685L1468.6 -58.7263L1398.37 -134.8L1369.02 -245L1349.57 -135.053L1374.41 -73.4618L1374.85 6.52089L1349.57 122.953Z" fill="white"/>
</svg>
