<svg width="6536" height="3677" viewBox="0 0 6536 3677" fill="none" xmlns="http://www.w3.org/2000/svg">
<g clip-path="url(#clip0_369_169)">
<path d="M4011 888.998C4403 687.998 4361 275.998 4773.5 -53.502H5313.5C4956 654.998 4823.5 316.998 4408 864.998C4065.54 1316.67 3348 1209.5 2966.5 1474.5C3096 1251.5 3432 1261.5 3648.5 1148C3461 1173.5 2761.22 1226 2711 1678.5C2617 2525.5 2329 2436.5 2058 2690C2478.5 2635 2682 2431.5 2837 1998.5C2850 2156.83 2784.8 2516.8 2420 2690C1808 2980.56 1342 2651.5 1139.5 3033L1301.5 2987.5C1114 3049 726 3417.5 726 3754H-105C90.5 3327.5 296.4 3547 687 2884C955.943 2427.5 1488.5 2637.5 1899.5 2525.5C1749.5 2538.7 1662.33 2507.33 1637.5 2490C2630 2503 1996.5 1843 2462 1416.5C2927.5 989.998 3001 1131.5 3609 961.498L3469.5 1038.5C3519.33 1055.66 3697.4 1049.8 4011 888.998Z" fill="#E61728"/>
<path d="M-276.505 2988.41C18.4951 2368.41 325.995 2425.91 496.995 2245.91C667.995 2065.91 692.995 1969.41 1022 1891.91C1351 1814.41 1463.5 1885.41 1578 1717.91C1692.5 1550.41 1586.5 1550.41 1503 1466.41C1436.2 1399.21 1508.5 1299.75 1553 1258.41C1335.5 1348.41 1550 1565.91 1419.5 1683.91C1438 1500.41 1242 1510.41 1341.5 1258.41C1441 1006.41 1981.5 1031.91 2130.5 1053.41C2249.7 1070.61 2432.83 1033.58 2509.5 1012.91C2260.35 997.559 2083.82 920.868 1972.14 943.739C1971.1 943.961 1970.05 944.186 1969 944.414C1970.04 944.18 1971.09 943.955 1972.14 943.739C2211.77 892.854 2243.65 1000.33 2509.5 981.914C2776.5 963.414 2789 863.914 3112 854.414C2764 944.414 2795 1031.41 2394.5 1105.91C1994 1180.41 1882 1093.41 1730 1239.41C1578 1385.41 1879 1460.41 1863.5 1624.91C1848 1789.41 1733.5 2090.41 1196 2245.91C765.995 2370.31 550.828 2548.41 496.995 2621.91L596.495 2428.91C338.495 2546.91 263.995 3081.41 -276.505 3584.41V2988.41Z" fill="#E61728"/>
<path d="M3259.32 422.998C3487.82 213.998 3682.32 322.998 3820.32 -48.002H3363.82C3225.82 165.998 3373.32 189.998 3087.82 360.998C2802.32 531.998 2621.82 322.998 2146.32 684.498C2540.82 384.998 3030.82 631.998 3259.32 422.998Z" fill="#E61728"/>
<path d="M1432.5 218.496C1518.17 170.829 1691.4 62.3961 1699 -86.0039H2617C2598 113.996 2222 8.99609 2060.5 218.496C1899 427.996 1589.5 493.996 1356.5 484.496C1123.5 474.996 886 617.996 862 888.996L962 812.996C795.5 1008 976 1164.5 781 1478.5C586 1792.5 125 1688 -198.5 2206V1626C-166.833 1603.83 -25.5 1513.8 286.5 1331C676.5 1102.5 362.5 1055.5 691 617.996C1019.5 180.496 1323.5 427.496 1589.5 175.496L1432.5 218.496Z" fill="#E61728"/>
<path d="M396 270.496C615 27.9961 928.5 237.496 1128.5 -95.5039H-89V1050.5C339 760.496 334 470.475 524.5 365.496C334.5 422.496 305.5 546.496 63 617.996C101 582.996 220.8 464.496 396 270.496Z" fill="#E61728"/>
<path d="M5785.33 3459.96C5711.73 3530.36 5599 3651.63 5551.83 3703.46H5954.33C6125.13 3434.26 6442.5 3276.46 6579.83 3226.46V3089.46C6501.83 3105.46 6282.83 3318.96 5954.33 3428.96C6013.33 3283.96 6211.33 3195.96 6221.33 3122.46C6202.33 3163.46 5877.33 3371.96 5785.33 3459.96Z" fill="#E61728"/>
<path d="M5269.83 3358.96C5228.33 3452.96 5004.83 3615.96 4991.83 3746.96H4279.33C4323.83 3526.96 4672.33 3492.96 4763.83 3298.96L4695.83 3335.46C4729.83 3277.96 4818.4 3095.15 5149.33 3028.96C5699.33 2918.96 5856.83 2811.46 6047.83 2434.46C6127.61 2277 6444 2157.8 6566.33 2112.46V2169.96C6189.33 2306.46 6065.83 2787.96 5832.83 2950.46C5599.83 3112.96 5133.33 3235.96 5109.83 3492.96C5141.33 3443.46 5214.83 3413.96 5269.83 3358.96Z" fill="#E61728"/>
<path d="M4135.31 3157.91C3920.81 3314.41 3466.81 3490.91 3405.81 3800.41H2386.81C2706.31 2979.41 3458.31 3563.41 3596.81 2697.91C3552.41 2740.71 3521.31 2811.75 3511.31 2841.91C3507.48 2804.58 3536.41 2672.11 3682.81 2440.91C4032.81 1864.41 4721.31 2235.41 5080.81 1910.41C4715.81 2336.41 4483.31 2024.41 4154.31 2273.41C4540.31 2153.41 5067.31 2315.41 5274.81 1993.91C5221.61 2065.51 5081.31 2105.08 5017.81 2115.91C5172.31 1993.91 5282.39 1932.41 5341.31 1782.91C5503.31 1371.91 5666.18 1417.91 5843.31 1234.91C5753.81 1420.91 5447.81 1478.41 5464.81 1738.91C5656.81 1521.91 5856.81 1497.41 6107.81 1078.91C6308.61 744.113 6536.15 664.413 6624.81 666.413V974.413C6185.31 1428.91 6278.81 1524.41 6183.81 1640.41C6319.41 1632.81 6429.31 1519.25 6467.31 1463.41C6345.81 2037.91 5818.81 1666.91 5748.31 2166.91C5691.91 2566.91 5368.48 2675.91 5213.81 2680.41C5556.31 2615.41 5656.81 2332.41 5656.81 2166.91C5580.15 2233.58 5366.31 2392.41 5124.31 2494.41C4821.81 2621.91 4178.31 2306.91 3923.81 2841.91L4077.32 2761.99C4078.66 2761.27 4079.99 2760.57 4081.31 2759.91L4077.32 2761.99C3940.95 2835.75 3718.66 3233.47 3499.81 3341.41C3606.31 3345.1 3944.26 3211.91 4043.81 3099.91C4268.31 2847.34 4342.81 2719.41 4754.31 2719.41C4254.81 2736.41 4349.81 3001.41 4135.31 3157.91Z" fill="#E61728"/>
<path d="M1515.86 3429.45C1419.2 3458.28 1213.76 3570.45 1165.36 3788.45H1915.86C2016.86 3134.45 2694.36 3190.95 3006.86 2965.95C2918.03 2988.45 2652.06 3048.75 2298.86 3109.95C1945.66 3171.15 1695.03 3348.45 1613.86 3429.45L1676.36 3416.45C1558.36 3485.45 1563.36 3576.45 1359.86 3615.45C1370.26 3560.25 1468.2 3468.45 1515.86 3429.45Z" fill="#E61728"/>
<path d="M3160.32 2429C3039.32 2572.5 2888.82 2478.5 2718.32 2673.5C2848.32 2579.5 2805.82 2626.5 3079.32 2525.5C3352.82 2424.5 3245.82 2215 3662.32 1877.5C4098.54 1524.02 4541.32 1980.5 4931.82 1397.5C5322.32 814.498 5696.32 756.498 5897.82 675.498C6099.32 594.498 6088.82 491.998 6182.82 388.498C6043.82 475.998 6088.82 482.998 5983.32 527.498C6122.32 367.998 6124.32 256.498 6288.32 139.998L6202.82 177.998C6244.02 104.398 6394.98 -6.66862 6465.32 -53.002H5945.32C5824.32 92.998 5794.82 247.498 5732.32 374.998C5682.32 476.998 5466.15 625.498 5364.32 686.998L5505.82 653.498C5322.32 826.498 5059.32 785.498 4866.82 966.998C4674.32 1148.5 4725.32 1377.5 4492.32 1525.5C4259.32 1673.5 4088.32 1575 3900.32 1660C3960.82 1523 4030.32 1411 4207.32 1288C3956.32 1373.5 3902.32 1570.5 3637.82 1797C3373.32 2023.5 3281.32 2285.5 3160.32 2429Z" fill="#E61728"/>
</g>
<defs>
<clipPath id="clip0_369_169">
<rect width="6536" height="3677" fill="white"/>
</clipPath>
</defs>
</svg>
