<svg width="6536" height="3677" viewBox="0 0 6536 3677" fill="none" xmlns="http://www.w3.org/2000/svg">
<path d="M590.5 3521L549 3677H1189L1080 3552.5L1189 3453.5L1293 3334L1313 3147L1250.5 2929L1146.5 3053.5L959.5 3147L819 3334L762 3256.5L705 3386L590.5 3521Z" fill="white"/>
<path d="M1224.5 3510.5L1180.5 3567H1250.5L1305 3552.5L1344 3502.5L1332 3438L1313 3477L1224.5 3510.5Z" fill="white"/>
<path d="M5410 217.5L5532.5 -1H5074.5V84.5L4989 175V84.5L4904 -1H4589.5L4669.5 116L4589.5 249.5L4333.5 494.5L4312.5 734L4333.5 888.5L4403 755.5L4621.5 542.5L5101 420L5410 217.5Z" fill="white"/>
<path d="M6287.5 1576.5L6406.5 1429L6431 1671L6287.5 1819L6000 1856L6147.5 1671L6287.5 1576.5Z" fill="#C00701"/>
<path d="M1451 1728.5L1360.5 1868L1545.5 1798.5L1689 1728.5V1535.5L1611 1638.5L1451 1728.5Z" fill="#C00701"/>
<path d="M703.5 115L666.5 -4H901L938 86.5L1052.5 148L1188 217.5L1237.5 357.5L1122.5 250.5L901 217.5L703.5 115Z" fill="white"/>
</svg>
