<svg width="6536" height="3677" viewBox="0 0 6536 3677" fill="none" xmlns="http://www.w3.org/2000/svg">
<path d="M4575.54 2519.99V2433.47L4633 2486.49L4738.5 2506.03L4819 2558.99L4850 2647.99V2728.71L4779.89 2616.12L4633 2586.49L4575.54 2519.99Z" fill="#FCAA05"/>
<path fill-rule="evenodd" clip-rule="evenodd" d="M3759 3513.53L3847.41 3676.99H4488.5L4462.5 3601.49L4457 3530.49L4509 3581.49L4567.5 3609.49L4593 3676.99H5591.5L5570 3609.49L5486.5 3564.49L5353 3530.49L5217 3426.99L5369.5 3513.53L5522.5 3547.99L5629.5 3609.49L5651 3676.99H6066L6039.31 3591.09L5900.02 3445.97L5668.99 3381.75L5444.5 3263.49L5298.5 3229.99L5154.5 3181.99L4983.39 3239.13L4779.89 3164.07L4610.57 3078.17L4553.86 2987.26L4575.54 2895.52L4610.57 2831.3L4522.16 2728.71L4397.89 2616.12L4269.44 2506.03V2433.47L4414.57 2371.75L4465.45 2318.38L4481.29 2204.95L4497.97 2057.33L4553.86 2001.45L4522.16 1915.54L4422.07 1842.98L4333.66 1764.59L4269.44 1651.99L4298.63 1764.59L4363.69 1853.83L4414.57 1942.23V2014.79L4397.89 2270L4363.69 2318.38C4335.89 2333.39 4278.12 2365.08 4269.44 2371.75C4260.77 2378.43 4131.27 2464.05 4067.6 2506.03L4008.38 2747.9L3898.29 2895.52L3809.88 3218.28V3445.97L3759 3513.53ZM4106 3181.99V3229.99L4130.5 3279.49L4173.5 3333.99L4183.5 3381.75L4188.5 3347.49L4185.5 3318.99L4153.5 3276.99L4124.5 3227.49L4115.5 3199.99L4106 3181.99ZM4593 3318.99L4670 3355.06L4799.5 3403.44L4886.5 3476.49L4908.5 3534.99L4850 3494.99L4773 3426.99L4654.5 3375.99L4593 3318.99Z" fill="#FCAA05"/>
<path fill-rule="evenodd" clip-rule="evenodd" d="M2322.22 0L2319.59 12.4205L2270.69 103.287L2342.31 246.132L2384.28 405.148L2481.7 502.56L2517.52 622.688L2709.28 717.02L2839.05 778.624L3089.5 860.635L3218 971.498L3295.5 1122.5L3175 995.998L3038.5 928.998L2881.02 905.298L2818.26 912.998L2709.28 883.736L2493.64 897.982L2287.63 860.635H2190.59L1975.34 802.495L1816.31 750.132H1730.05L1481.3 684.677H1301.47L1320.34 729.34L1120.1 695.843L895.605 622.688L688.053 302.731L645.63 0H867V37.502L895.605 103.287L986.5 192.002H1087.5L1188.5 260.002L1120.1 169.002L1003.5 157.502L964.5 93.502L940 37.502L960.193 0H2023.07L2023 0.501953V80.502L2058.5 127.502L2052.5 80.502L2070 0.501953L2070.26 0H2322.22ZM1704 163.002L1673 93.502L1608 0.0379028L1528.38 0L1542 58.002L1602.5 119.502L1633.5 169.002L1730.05 246.132L1875 319.002L1773.5 239.502L1704 163.002ZM2165 561.502L2082 517.502L2150.5 580.502L2239.5 612.002L2319.59 684.677L2421 717.02L2342.31 677.502L2261 596.002L2165 561.502Z" fill="#FCAA05"/>
<path d="M2574 405.148L2637 438.502L2710 445.502L2603.5 476.502L2574 405.148Z" fill="#FCAA05"/>
<path fill-rule="evenodd" clip-rule="evenodd" d="M647.722 3677L724.133 3547.6L893.49 3447.74L1174.7 3350.41L1431.49 3128.42L1651.26 3067.99L1864.73 2956.04L1892.3 2883.52L1982.1 2843.45L2028.57 2728.95L2260.15 2556.57L2304.27 2597.92L2370.43 2568.66L2403.52 2494.87L2472.83 2454.8L2522.46 2396.91L2588.63 2365.74L2633.53 2303.41L2688.67 2263.33L2751.68 2222.62L2821 2194L2747.74 2254.43L2679.21 2318.67L2644.55 2344.75L2605.96 2389.91L2530.34 2447.8L2506.71 2487.87L2449.2 2531.13L2442.9 2581.38L2316.7 2711.78L2283.2 2843.45L2259.57 2829.45L2245.39 2788.74L2212.31 2797.65L2226.07 2917.87V3002.47L2295.39 3156.41V3261.36L2110.28 3522.16L2150.45 3576.23L2167.24 3677H1428.66L1438.58 3647.47L1425.98 3622.02L1431.49 3601.03L1460.64 3562.87L1481.12 3531.06L1503.17 3506.89L1533.1 3466.18L1559.89 3437.56L1589.82 3400.66L1533.1 3447.74L1460.64 3522.16L1374.78 3594.67L1301.52 3636.66L1273.25 3677H647.722ZM2053 3077.5V3002.47L2028.57 3077.5L1982.1 3148.5L1916 3181L1858 3275L1772 3331.5L1892.3 3297.5L2015.5 3181L2053 3077.5Z" fill="#FCAA05"/>
<path d="M4965.28 42.6379L4980.29 4.26685e-05L5076.79 0L5050.24 42.3959L5050.36 85.6085L5119.29 112.512L5133.29 143.234L5050.73 214.514L4868.57 290.473L4820.38 344.077L4820.45 365.317L4862.23 379.114L4839.69 434.843L4666.53 586.216L4554.31 786.487L4566.18 839.921L4635.79 849.976L4678.3 860.842L4636.05 942.261L4483.95 1028.39L4431.45 1109.84L4345.94 1173.07L4311.65 1221.51L4198.44 1332.43L4156.1 1381.62L4121.16 1455.69L4067.83 1504.18L4105.74 1444.02L4120.93 1375.13L4173.51 1321.51L4191.73 1291.43L4322.41 1140.18L4380.82 1077.02L4488.69 892.876L4500.24 833.517L4588.36 656.019L4666.23 480.015L4751.61 371.373L4751.56 351.598L4707.59 344.399L4707.47 302.651L4861.68 186.488L4965.28 42.6379Z" fill="#1A1A1A"/>
<path d="M3593.32 1963.48L3689.14 1840.78L3561.64 1956.23L3506 1988.62L3429.18 2041.81L3430.64 2133.96L3398.36 2176.32L3396.92 2238.57L3337.44 2303.43L3210.96 2329.33L3125.49 2386.7L3038.48 2421.65L3006.45 2518.95L3020.16 2635.97L2988.78 2723.68L3114.71 2657.63L3232.13 2474.22L3299.48 2426.56L3439.79 2326.87L3473.44 2256.1L3521.68 2186.62L3508.39 2103.56L3546.23 2023.48L3593.32 1963.48Z" fill="#1A1A1A"/>
<path d="M6433.65 531.013L6501.33 489.308L6537 489.309V69.691H6480.5L6381.6 139.262L6383.45 94.1899L6285.75 161.859L6195.64 192.28L6121.77 268.308L6171.99 169.304L6249.03 119.452L6303.51 63.3793L6301.47 0L5683.23 1.53697e-05L5647.63 56.5134L5767.68 69.6906L5664.34 228.553L5455.89 664.032L5427.45 910.86L5146 1019L5248 1072L5489 1019L5606.68 936.788L5700.14 812.269L5850.45 776.937L5969.92 755.588L6409.83 474.704L6433.65 531.013Z" fill="#FCAA05"/>
<path d="M122.5 1621L0 1521V1811.5L53.5 1820.5L86 1799L265.5 1888L414 1851L463.5 1799L425 1811.5L311.5 1820.5L222 1748L122.5 1621Z" fill="#1A1A1A"/>
</svg>
