<svg width="6049" height="3677" viewBox="0 0 6049 3677" fill="none" xmlns="http://www.w3.org/2000/svg">
<path d="M2848.59 3279.13L2756 3677H3416.65V3573.37L3494.43 3517.85V3441.05V3341.12L3538.41 3239.34V3341.12L3613.87 3517.85L3538.41 3677H4024.98L4056 3517.85L3883.32 3239.34V2996.46L4024.98 2674L3494.43 2819.73L3308.32 2996.46V2912.72L3206.93 3032.08L2848.59 3279.13Z" fill="#3B9246"/>
<path d="M4890.39 1972.76L4715.07 1936.41L4772.5 1978.91L4821.3 2024.2L4871.24 2038.7L4945.52 2127.15L5101.09 2172.33L5178.93 2149.91L5299.06 2162.95L5378.68 2238.38L5441.86 2338.17L5418.22 2231.32L5344.08 2119.08L5183.03 2098.14L4958.21 2049.39L4890.39 1972.76Z" fill="#00387A"/>
<path d="M5028.65 234.777L5039.1 101.924L5067.55 -0.445285L5403 -0.445312V81.4101L5363 209.41L5262.5 335.423L5403 234.777L5467 101.924L5551 48.9101L5586.67 -0.445252L6048.8 -0.445307L5713.01 367.274L5425.72 571.522L5100.81 671.954L5103.95 568.506L5025.42 725.551L4804.89 824.386L4817.47 728.166L4720.07 841.416L4468.23 976.451L4744.38 625.366L4883.75 526.284L4983.03 335.423L5028.65 234.777Z" fill="#3B9246"/>
<path d="M1534.36 351.295L1511 142.074L1528.46 0.000976562H1849.03L1779.64 85.5655L1769.89 163.711L1779.64 294.678L1948.11 556.612L1907.32 406.832V294.678L1971.16 454.588L2077.56 620.286L2105.05 699.156L2251.35 834.464L2434 943L2236.27 882.943L2122.78 822.163L2191.05 898.862L2077.56 867.812L1930.93 771.607L1716.06 579.198L1677.68 425.084V294.678V202.784L1642.26 341.955L1613.76 393.808L1625.36 501.673L1534.36 351.295Z" fill="#3B9246"/>
<path fill-rule="evenodd" clip-rule="evenodd" d="M1040.09 2032.28L1299.72 1846.48L1681.13 1708.15L2199.96 1680.8L1801.55 1877.61L1598.16 2198.68L1416.16 2336.26L1293.96 2633.03L1261.28 2445.45L1263.09 2341.8L1345.25 2155.9L1213.57 2256.86L1156.82 2373.52L984.437 2478.24L653.499 2670.96L653.499 2670.95L752.5 2478.24L894.914 2304.96L1040.09 2032.28ZM1439.5 1917.46L1574.5 1893.46L1416.16 1968.46L1293.96 2032.28L1439.5 1917.46Z" fill="#3B9246"/>
<path d="M427.388 3566.03L253 3645.25L405.88 3513.03L524.862 3398.51L596.546 3290.4L687.437 3231.69L652.747 3296.29L576.166 3422.6L427.388 3566.03Z" fill="#00387A"/>
<path d="M127.959 407.905L19.6934 235L207.793 322.259L375.33 375.568L501.987 384.896L652.624 477.078L740.495 556.957L640.402 500.078L527.961 467.898L404.042 482.672L127.959 407.905Z" fill="#D9D9D9"/>
<path d="M127.959 407.905L19.6934 235L207.793 322.259L375.33 375.568L501.987 384.896L652.624 477.078L740.495 556.957L640.402 500.078L527.961 467.898L404.042 482.672L127.959 407.905Z" fill="#00387A"/>
</svg>
