<svg width="6536" height="3677" viewBox="0 0 6536 3677" fill="none" xmlns="http://www.w3.org/2000/svg">
<path d="M4011 889C4403 688 4361 276 4773.5 -53.5H5313.5C4956 655 4823.5 317 4408 865C4065.54 1316.67 3348 1209.5 2966.5 1474.5C3096 1251.5 3432 1261.5 3648.5 1148C3461 1173.5 2761.22 1226 2711 1678.5C2617 2525.5 2329 2436.5 2058 2690C2478.5 2635 2682 2431.5 2837 1998.5C2850 2156.83 2784.8 2516.8 2420 2690C1808 2980.57 1342 2651.5 1139.5 3033L1301.5 2987.5C1114 3049 726 3417.5 726 3754H-105C90.5 3327.5 296.4 3547 687 2884C955.943 2427.5 1488.5 2637.5 1899.5 2525.5C1749.5 2538.7 1662.33 2507.33 1637.5 2490C2630 2503 1996.5 1843 2462 1416.5C2927.5 990 3001 1131.5 3609 961.5L3469.5 1038.5C3519.33 1055.67 3697.4 1049.8 4011 889Z" fill="#161616"/>
<path d="M-276.5 2988.5C18.5 2368.5 326 2426 497 2246C668 2066 693 1969.5 1022 1892C1351 1814.5 1463.5 1885.5 1578 1718C1692.5 1550.5 1586.5 1550.5 1503 1466.5C1436.2 1399.3 1508.5 1299.83 1553 1258.5C1335.5 1348.5 1550 1566 1419.5 1684C1438 1500.5 1242 1510.5 1341.5 1258.5C1441 1006.5 1981.5 1032 2130.5 1053.5C2249.7 1070.7 2432.83 1033.67 2509.5 1013C2260.35 997.645 2083.83 920.954 1972.15 943.825C1971.1 944.047 1970.05 944.272 1969 944.5C1970.04 944.266 1971.09 944.041 1972.15 943.825C2211.77 892.94 2243.66 1000.42 2509.5 982C2776.5 963.5 2789 864 3112 854.5C2764 944.5 2795 1031.5 2394.5 1106C1994 1180.5 1882 1093.5 1730 1239.5C1578 1385.5 1879 1460.5 1863.5 1625C1848 1789.5 1733.5 2090.5 1196 2246C766 2370.4 550.833 2548.5 497 2622L596.5 2429C338.5 2547 264 3081.5 -276.5 3584.5V2988.5Z" fill="#161616"/>
<path d="M3259 423C3487.5 214 3682 323 3820 -48H3363.5C3225.5 166 3373 190 3087.5 361C2802 532 2621.5 323 2146 684.5C2540.5 385 3030.5 632 3259 423Z" fill="#161616"/>
<path d="M1432.5 218.5C1518.17 170.833 1691.4 62.4 1699 -86H2617C2598 114 2222 9 2060.5 218.5C1899 428 1589.5 494 1356.5 484.5C1123.5 475 886 618 862 889L962 813C795.5 1008 976 1164.5 781 1478.5C586 1792.5 125 1688 -198.5 2206V1626C-166.833 1603.83 -25.5 1513.8 286.5 1331C676.5 1102.5 362.5 1055.5 691 618C1019.5 180.5 1323.5 427.5 1589.5 175.5L1432.5 218.5Z" fill="#161616"/>
<path d="M396 270.5C615 28 928.5 237.5 1128.5 -95.5H-89V1050.5C339 760.5 334 470.479 524.5 365.5C334.5 422.5 305.5 546.5 63 618C101 583 220.8 464.5 396 270.5Z" fill="#161616"/>
<path d="M5785 3460C5711.4 3530.4 5598.67 3651.67 5551.5 3703.5H5954C6124.8 3434.3 6442.17 3276.5 6579.5 3226.5V3089.5C6501.5 3105.5 6282.5 3319 5954 3429C6013 3284 6211 3196 6221 3122.5C6202 3163.5 5877 3372 5785 3460Z" fill="#161616"/>
<path d="M5269.5 3359C5228 3453 5004.5 3616 4991.5 3747H4279C4323.5 3527 4672 3493 4763.5 3299L4695.5 3335.5C4729.5 3278 4818.07 3095.19 5149 3029C5699 2919 5856.5 2811.5 6047.5 2434.5C6127.28 2277.03 6443.67 2157.83 6566 2112.5V2170C6189 2306.5 6065.5 2788 5832.5 2950.5C5599.5 3113 5133 3236 5109.5 3493C5141 3443.5 5214.5 3414 5269.5 3359Z" fill="#161616"/>
<path d="M4135 3158C3920.5 3314.5 3466.5 3491 3405.5 3800.5H2386.5C2706 2979.5 3458 3563.5 3596.5 2698C3552.1 2740.8 3521 2811.83 3511 2842C3507.17 2804.67 3536.1 2672.2 3682.5 2441C4032.5 1864.5 4721 2235.5 5080.5 1910.5C4715.5 2336.5 4483 2024.5 4154 2273.5C4540 2153.5 5067 2315.5 5274.5 1994C5221.3 2065.6 5081 2105.17 5017.5 2116C5172 1994 5282.07 1932.5 5341 1783C5503 1372 5665.87 1418 5843 1235C5753.5 1421 5447.5 1478.5 5464.5 1739C5656.5 1522 5856.5 1497.5 6107.5 1079C6308.3 744.201 6535.83 664.501 6624.5 666.501V974.501C6185 1429 6278.5 1524.5 6183.5 1640.5C6319.1 1632.9 6429 1519.33 6467 1463.5C6345.5 2038 5818.5 1667 5748 2167C5691.6 2567 5368.17 2676 5213.5 2680.5C5556 2615.5 5656.5 2332.5 5656.5 2167C5579.83 2233.67 5366 2392.5 5124 2494.5C4821.5 2622 4178 2307 3923.5 2842L4077.01 2762.08C4078.35 2761.36 4079.68 2760.66 4081 2760L4077.01 2762.08C3940.63 2835.84 3718.35 3233.56 3499.5 3341.5C3606 3345.19 3943.95 3212 4043.5 3100C4268 2847.43 4342.5 2719.5 4754 2719.5C4254.5 2736.5 4349.5 3001.5 4135 3158Z" fill="#161616"/>
<path d="M1515.5 3429.5C1418.83 3458.33 1213.4 3570.5 1165 3788.5H1915.5C2016.5 3134.5 2694 3191 3006.5 2966C2917.67 2988.5 2651.7 3048.8 2298.5 3110C1945.3 3171.2 1694.67 3348.5 1613.5 3429.5L1676 3416.5C1558 3485.5 1563 3576.5 1359.5 3615.5C1369.9 3560.3 1467.83 3468.5 1515.5 3429.5Z" fill="#161616"/>
<path d="M3160 2429C3039 2572.5 2888.5 2478.5 2718 2673.5C2848 2579.5 2805.5 2626.5 3079 2525.5C3352.5 2424.5 3245.5 2215 3662 1877.5C4098.22 1524.02 4541 1980.5 4931.5 1397.5C5322 814.5 5696 756.5 5897.5 675.5C6099 594.5 6088.5 492 6182.5 388.5C6043.5 476 6088.5 483 5983 527.5C6122 368 6124 256.5 6288 140L6202.5 178C6243.7 104.4 6394.67 -6.66667 6465 -53H5945C5824 93 5794.5 247.5 5732 375C5682 477 5465.83 625.5 5364 687L5505.5 653.5C5322 826.5 5059 785.5 4866.5 967C4674 1148.5 4725 1377.5 4492 1525.5C4259 1673.5 4088 1575 3900 1660C3960.5 1523 4030 1411 4207 1288C3956 1373.5 3902 1570.5 3637.5 1797C3373 2023.5 3281 2285.5 3160 2429Z" fill="#161616"/>
</svg>
