<svg width="6536" height="3677" viewBox="0 0 6536 3677" fill="none" xmlns="http://www.w3.org/2000/svg">
<path d="M5205.81 2115.48L4963 2077L5009.64 2124.41H5045.31L5147.51 2199.98L5259.31 2320.9L5169.46 2272.12L5326.53 2430.15L5373.17 2434.27L5501.44 2502.29L5664 2560L5544.65 2466.56L5515.84 2459L5318.99 2272.12L5433.53 2303.73H5488.41L5447.25 2263.88L5563.86 2292.05L5664 2303.73L5595.41 2257.7L5347.8 2199.98L5205.81 2115.48Z" fill="#162149"/>
<path d="M889.959 934.905L781.694 762L969.793 849.259L1137.33 902.568L1263.99 911.896L1414.62 1004.08L1502.49 1083.96L1402.4 1027.08L1289.96 994.898L1166.04 1009.67L889.959 934.905Z" fill="#D9D9D9"/>
<path d="M889.959 934.905L781.694 762L969.793 849.259L1137.33 902.568L1263.99 911.896L1414.62 1004.08L1502.49 1083.96L1402.4 1027.08L1289.96 994.898L1166.04 1009.67L889.959 934.905Z" fill="#162149"/>
<path d="M2030.5 3035.5L1960 3112L2078.5 3065.5H2121.5L2253.5 3004.5L2210 3065.5L2295 3035.5L2367 2956.5H2341.5L2367 2920.5V2874.5L2444.5 2829.5L2462.5 2774L2429.5 2801L2486.5 2659L2389.5 2774L2295 2846L2262 2929.5L2172.5 2964L2121.5 3016.5L2030.5 3035.5Z" fill="#162149"/>
<path d="M4283.5 877L4563.5 748L4428 877L4393.5 1014L4299 1031.5L4181 1097.5L4159 1083L4008 1097.5L4050.5 1064.5H3980L3912 1073.5L3967 1044L4041 1031.5L4127.5 992L4236 877H4283.5Z" fill="#162149"/>
<path d="M604.5 2949L240 3119.5L14 3309L-134.5 3593.5V3807H379.5L430 3706L582.5 3574L619 3449.5L732 3328L682 3525L697.5 3627.5L761 3807L832 3494L988.5 3328L1135.5 2977.5L1495.5 2717L988.5 2830.5L635.5 3030.5L410.5 3257L430 3145.5L604.5 2949Z" fill="#162149"/>
<path d="M6293.5 3521L6492 3723.5H5957L5717.5 3521L5482.5 3476.5L5283.5 3383L5125.5 3265.5L5198.5 3383L5304 3444L5405 3513L5519 3553.5L5697.5 3638.5L5754 3723.5H4902L4966 3582L4902 3350.5L4849.5 3192.5V3030L4748 2920.5L5153.5 3050.5L5405 3160L5697.5 3192.5L5998 3350.5L6293.5 3521Z" fill="#162149"/>
<path d="M2187.43 439.005L2267.56 648.703L2056.16 506.543L1846.6 403.385L1653.24 346.306L1482.36 138.764L1398.05 50.4329L1250.46 -22.2179L1420.15 -237.132L1775.81 -275.174L1947.95 -96.7809L1972.09 200.848L2187.43 439.005Z" fill="#162149"/>
<path d="M3154.09 1340.02L3205.73 1298L3198.51 1368.24L3210.44 1474.58L3187.25 1635.66L3119.01 1758.53L2950.37 1851.91L2863.49 1992.47L2784.71 2110.99L2809.51 2013.62L2818.5 1887.33L2879.46 1834.2L2914.27 1758.85L2992.07 1698.81L3056.07 1650.38L2975.08 1659.46L2891.76 1715.09L2807.96 1793.42L2725.4 1833.37L2670.7 1960.25L2689.19 1784.1L2817.52 1582.54L3041.63 1521.68L3138.95 1433.79L3154.09 1340.02Z" fill="white"/>
</svg>
