<svg width="6536" height="3677" viewBox="0 0 6536 3677" fill="none" xmlns="http://www.w3.org/2000/svg">
<g clip-path="url(#clip0_337_13)">
<path d="M4011 889C4403 688 4361 276 4773.5 -53.5H5313.5C4956 655 4823.5 317 4408 865C4065.54 1316.67 3348 1209.5 2966.5 1474.5C3096 1251.5 3432 1261.5 3648.5 1148C3461 1173.5 2761.22 1226 2711 1678.5C2617 2525.5 2329 2436.5 2058 2690C2478.5 2635 2682 2431.5 2837 1998.5C2850 2156.83 2784.8 2516.8 2420 2690C1808 2980.57 1342 2651.5 1139.5 3033L1301.5 2987.5C1114 3049 726 3417.5 726 3754H-105C90.5 3327.5 296.4 3547 687 2884C955.943 2427.5 1488.5 2637.5 1899.5 2525.5C1749.5 2538.7 1662.33 2507.33 1637.5 2490C2630 2503 1996.5 1843 2462 1416.5C2927.5 990 3001 1131.5 3609 961.5L3469.5 1038.5C3519.33 1055.67 3697.4 1049.8 4011 889Z" fill="#FFC901"/>
<path d="M-276.5 2988.41C18.5 2368.41 326 2425.91 497 2245.91C668 2065.91 693 1969.41 1022 1891.91C1351 1814.41 1463.5 1885.41 1578 1717.91C1692.5 1550.41 1586.5 1550.41 1503 1466.41C1436.2 1399.21 1508.5 1299.75 1553 1258.41C1335.5 1348.41 1550 1565.91 1419.5 1683.91C1438 1500.41 1242 1510.41 1341.5 1258.41C1441 1006.41 1981.5 1031.91 2130.5 1053.41C2249.7 1070.61 2432.83 1033.58 2509.5 1012.91C2260.35 997.557 2083.83 920.866 1972.15 943.737C1971.1 943.959 1970.05 944.184 1969 944.412C1970.04 944.178 1971.09 943.953 1972.15 943.737C2211.77 892.852 2243.66 1000.33 2509.5 981.912C2776.5 963.412 2789 863.912 3112 854.412C2764 944.412 2795 1031.41 2394.5 1105.91C1994 1180.41 1882 1093.41 1730 1239.41C1578 1385.41 1879 1460.41 1863.5 1624.91C1848 1789.41 1733.5 2090.41 1196 2245.91C766 2370.31 550.833 2548.41 497 2621.91L596.5 2428.91C338.5 2546.91 264 3081.41 -276.5 3584.41V2988.41Z" fill="#FFC901"/>
<path d="M3259 423C3487.5 214 3682 323 3820 -48H3363.5C3225.5 166 3373 190 3087.5 361C2802 532 2621.5 323 2146 684.5C2540.5 385 3030.5 632 3259 423Z" fill="#FFC901"/>
<path d="M1432.5 218.5C1518.17 170.833 1691.4 62.4 1699 -86H2617C2598 114 2222 9 2060.5 218.5C1899 428 1589.5 494 1356.5 484.5C1123.5 475 886 618 862 889L962 813C795.5 1008 976 1164.5 781 1478.5C586 1792.5 125 1688 -198.5 2206V1626C-166.833 1603.83 -25.5 1513.8 286.5 1331C676.5 1102.5 362.5 1055.5 691 618C1019.5 180.5 1323.5 427.5 1589.5 175.5L1432.5 218.5Z" fill="#FFC901"/>
<path d="M396 270.5C615 28 928.5 237.5 1128.5 -95.5H-89V1050.5C339 760.5 334 470.479 524.5 365.5C334.5 422.5 305.5 546.5 63 618C101 583 220.8 464.5 396 270.5Z" fill="#FFC901"/>
<path d="M5785 3459.91C5711.4 3530.31 5598.67 3651.58 5551.5 3703.41H5954C6124.8 3434.21 6442.17 3276.41 6579.5 3226.41V3089.41C6501.5 3105.41 6282.5 3318.91 5954 3428.91C6013 3283.91 6211 3195.91 6221 3122.41C6202 3163.41 5877 3371.91 5785 3459.91Z" fill="#FFC901"/>
<path d="M5269.5 3358.91C5228 3452.91 5004.5 3615.91 4991.5 3746.91H4279C4323.5 3526.91 4672 3492.91 4763.5 3298.91L4695.5 3335.41C4729.5 3277.91 4818.07 3095.1 5149 3028.91C5699 2918.91 5856.5 2811.41 6047.5 2434.41C6127.28 2276.95 6443.67 2157.75 6566 2112.41V2169.91C6189 2306.41 6065.5 2787.91 5832.5 2950.41C5599.5 3112.91 5133 3235.91 5109.5 3492.91C5141 3443.41 5214.5 3413.91 5269.5 3358.91Z" fill="#FFC901"/>
<path d="M4135 3157.91C3920.5 3314.41 3466.5 3490.91 3405.5 3800.41H2386.5C2706 2979.41 3458 3563.41 3596.5 2697.91C3552.1 2740.71 3521 2811.75 3511 2841.91C3507.17 2804.58 3536.1 2672.11 3682.5 2440.91C4032.5 1864.41 4721 2235.41 5080.5 1910.41C4715.5 2336.41 4483 2024.41 4154 2273.41C4540 2153.41 5067 2315.41 5274.5 1993.91C5221.3 2065.51 5081 2105.08 5017.5 2115.91C5172 1993.91 5282.07 1932.41 5341 1782.91C5503 1371.91 5665.87 1417.91 5843 1234.91C5753.5 1420.91 5447.5 1478.41 5464.5 1738.91C5656.5 1521.91 5856.5 1497.41 6107.5 1078.91C6308.3 744.113 6535.83 664.413 6624.5 666.413V974.413C6185 1428.91 6278.5 1524.41 6183.5 1640.41C6319.1 1632.81 6429 1519.25 6467 1463.41C6345.5 2037.91 5818.5 1666.91 5748 2166.91C5691.6 2566.91 5368.17 2675.91 5213.5 2680.41C5556 2615.41 5656.5 2332.41 5656.5 2166.91C5579.83 2233.58 5366 2392.41 5124 2494.41C4821.5 2621.91 4178 2306.91 3923.5 2841.91L4077.01 2761.99C4078.35 2761.27 4079.68 2760.57 4081 2759.91L4077.01 2761.99C3940.63 2835.75 3718.35 3233.47 3499.5 3341.41C3606 3345.1 3943.95 3211.91 4043.5 3099.91C4268 2847.34 4342.5 2719.41 4754 2719.41C4254.5 2736.41 4349.5 3001.41 4135 3157.91Z" fill="#FFC901"/>
<path d="M1515.5 3429.41C1418.83 3458.25 1213.4 3570.41 1165 3788.41H1915.5C2016.5 3134.41 2694 3190.91 3006.5 2965.91C2917.67 2988.41 2651.7 3048.71 2298.5 3109.91C1945.3 3171.11 1694.67 3348.41 1613.5 3429.41L1676 3416.41C1558 3485.41 1563 3576.41 1359.5 3615.41C1369.9 3560.21 1467.83 3468.41 1515.5 3429.41Z" fill="#FFC901"/>
<path d="M3160 2429C3039 2572.5 2888.5 2478.5 2718 2673.5C2848 2579.5 2805.5 2626.5 3079 2525.5C3352.5 2424.5 3245.5 2215 3662 1877.5C4098.22 1524.02 4541 1980.5 4931.5 1397.5C5322 814.5 5696 756.5 5897.5 675.5C6099 594.5 6088.5 492 6182.5 388.5C6043.5 476 6088.5 483 5983 527.5C6122 368 6124 256.5 6288 140L6202.5 178C6243.7 104.4 6394.67 -6.66667 6465 -53H5945C5824 93 5794.5 247.5 5732 375C5682 477 5465.83 625.5 5364 687L5505.5 653.5C5322 826.5 5059 785.5 4866.5 967C4674 1148.5 4725 1377.5 4492 1525.5C4259 1673.5 4088 1575 3900 1660C3960.5 1523 4030 1411 4207 1288C3956 1373.5 3902 1570.5 3637.5 1797C3373 2023.5 3281 2285.5 3160 2429Z" fill="#FFC901"/>
</g>
<defs>
<clipPath id="clip0_337_13">
<rect width="6536" height="3677" fill="white"/>
</clipPath>
</defs>
</svg>
