<svg width="6536" height="3677" viewBox="0 0 6536 3677" fill="none" xmlns="http://www.w3.org/2000/svg">
<path fill-rule="evenodd" clip-rule="evenodd" d="M-116 -204.834L461.132 -204.834L697.594 -136.457L920.337 -36.917L796.694 -55.6573L817.49 -42.8574L1069.51 112.264L1421.58 231.307L1597.92 359.649L1700.81 500.832L1714.04 670.132L1583.16 612.114L1442.35 542.516L1242.03 523.015L1103.18 552.277L821.141 562.379L613.979 460.82L400.802 527.646L189.622 515.804L-116.001 373.445L-116 -204.834ZM901.166 209.414L686.749 192.848L898.301 250.673L1059.11 306.632L1166.75 355.812L1076.8 277.907L901.166 209.414Z" fill="#2B276C"/>
<path fill-rule="evenodd" clip-rule="evenodd" d="M5335.11 280.674L5371.92 -0.00195312H5785L5764.5 140.998L5785 230.498L5796.5 291.498L5811.5 230.498V140.998L5876 39.998L5891 70.498L5917 39.998V-0.00195312H6536V186.57V469.998L6465 552.998L6422 568.998L6444 543.998L6452 453.498L6422 376.244L6317.44 550.217L6254.5 746.285L6169.5 824.498V770.498L6180 726.841L5947.5 801.998L5687 928.998L5442.5 1160L5178.05 1253.63L5028.34 1288L4913 1270.81L5028.34 1230.72L5150.23 1078.51V856.755L5335.11 724.191L5371.92 502.433L5335.11 280.674ZM6122 409.998L6169.5 317.998L6131 349.998L6042.5 376.244L5979.5 421.498L5947.5 460.998H5974L5907.5 515.998L5979.5 502.433L6122 409.998Z" fill="#2B276C"/>
<path d="M2465.97 2443.7L2305.26 2528.38L2201.58 2708.12L1993.34 2968.23L1582.92 3071.92L1497.38 3270.67L1653.77 3521.27L1497.38 3682H317.846L321.207 3680.46L321.329 3680.4L321.406 3680.29L364.38 3619.33L428.8 3554.91L539.673 3493.98L629.097 3475.99L629.136 3475.98L629.173 3475.97L686.673 3454.47L686.998 3454.35V3364.67L736.839 3296.88L837.211 3239.46L1066.18 3149.97L1065.85 3149.03L782.848 3238.53L782.799 3238.54L589.255 3346.06L589.203 3346.09L589.159 3346.13L476.409 3450.13L461.998 3418.5L394.498 3493.98L363.633 3554.16L363.609 3554.19L260.068 3682H-0.00195312V3179.5L570.998 2882.68L1077 2708.12H1365.18L1653.77 2613.93H1912.99L2173.06 2467.03L2442.64 2391.85L2523 2340L2465.97 2443.7Z" fill="#2B276C"/>
<path d="M1912.99 3200L1814.5 3237.5L1710 3316L1762 3200L1971 3137L1912.99 3200Z" fill="#2B276C"/>
<path d="M1365.18 2313L1289.5 2391.85L1114.5 2443.7L1224 2313L1426.5 2227.5L1365.18 2313Z" fill="#2B276C"/>
<path d="M4147.96 2095.9L4037.13 1973L4079.37 2120.44L4068.35 2310.45L4151.98 2492.25L4241.66 2569.95L4263.32 2602.84L4229.99 2591.71L4249.44 2618.54L4328.56 2652.02L4397.1 2665.16L4488.93 2801.26L4440.48 2793.84L4508.53 2830.31L4674.64 2928.42L4787.55 2969.79L4679.76 2840.24L4646.27 2679.62L4555.01 2580.14L4406.28 2507.01L4334.39 2343.07L4221.27 2248.78L4147.96 2095.9Z" fill="#2B276C"/>
<path d="M4675.69 657.596L4619.78 709.73L4677.84 687.519L4717.74 684.657L4781.34 627.96L4802.83 543.205L4878.84 491.635L4948.61 437.002L4877.27 469.691L4759.58 520.241L4694.95 590.547L4675.69 657.596Z" fill="white"/>
<path d="M2760.5 3525.5L2690 3602L2787 3551L2947.5 3525.5L3037.5 3506.5L3083 3499L3058.5 3484.22L3119.5 3419.5L3159.5 3291L3216.5 3149L3119.5 3264L3083 3363L2992 3419.5L2902.5 3454L2851.5 3506.5L2760.5 3525.5Z" fill="white"/>
<path d="M2748.42 535.839L2900.96 685.703L2853.88 624.553L2831.49 557.097L2786.09 475.4L2798.78 451.007L2741.91 372.925L2730.5 249.739L2703.27 191.597L2682.64 195.509L2636.44 175.97L2531.76 108.514L2479.92 36.9995L2497.56 162.3L2484.43 199.433L2499.95 289.812L2537.12 314.794L2616.59 391.68L2664.25 486.384L2674.94 475.6L2748.42 535.839Z" fill="white"/>
<path d="M877.219 1900.66L728 1860.18L879.716 1847.08L1001.66 1827.9L1088.15 1786.07L1171.73 1793.68L1125.78 1823.44L1029.77 1876.5L877.219 1900.66Z" fill="white"/>
</svg>
