<svg width="140" height="140" viewBox="0 0 140 140" fill="none" xmlns="http://www.w3.org/2000/svg">
<rect width="140" height="140" rx="50" fill="#0A66C2"/>
<path d="M53.2787 60.6557H40.9836V100H53.2787V60.6557ZM54.3852 47.1311C54.3917 46.2011 54.215 45.2789 53.865 44.4172C53.5151 43.5555 52.9989 42.7712 52.3458 42.109C51.6928 41.4468 50.9157 40.9197 50.0589 40.5579C49.2021 40.196 48.2825 40.0064 47.3525 40H47.1311C45.2398 40 43.426 40.7513 42.0887 42.0887C40.7513 43.426 40 45.2398 40 47.1311C40 49.0224 40.7513 50.8363 42.0887 52.1736C43.426 53.511 45.2398 54.2623 47.1311 54.2623C48.0612 54.2852 48.9867 54.1246 49.8547 53.7897C50.7227 53.4547 51.5162 52.9521 52.1899 52.3104C52.8635 51.6687 53.4042 50.9005 53.7808 50.0498C54.1575 49.1991 54.3629 48.2826 54.3852 47.3525V47.1311ZM100 76.0984C100 64.2705 92.4754 59.6721 85 59.6721C82.5524 59.5496 80.1154 60.0709 77.9322 61.1841C75.7489 62.2973 73.8957 63.9634 72.5574 66.0164H72.2131V60.6557H60.6557V100H72.9508V79.0738C72.7731 76.9306 73.4482 74.8038 74.8295 73.1555C76.2107 71.5072 78.1866 70.4704 80.3279 70.2705H80.7951C84.7049 70.2705 87.6066 72.7295 87.6066 78.9262V100H99.9016L100 76.0984Z" fill="white"/>
</svg>
