<svg width="140" height="140" viewBox="0 0 140 140" fill="none" xmlns="http://www.w3.org/2000/svg">
<rect width="140" height="140" rx="50" fill="#7360F2"/>
<g clip-path="url(#clip0_584_1300)">
<path d="M98.0246 39.3513C96.1247 37.6514 88.525 32.0516 71.4257 31.9516C71.4257 31.9516 51.3264 30.7517 41.5268 39.7513C36.027 45.2511 34.1271 53.1508 33.9271 63.0504C33.7271 72.95 33.4272 91.4493 51.3265 96.5491V104.249C51.3265 104.249 51.2265 107.349 53.2264 107.949C55.7263 108.749 57.1262 106.349 59.5261 103.849C60.8261 102.449 62.626 100.449 63.9259 98.849C76.1255 99.849 85.5251 97.5491 86.6251 97.1491C89.125 96.3491 103.024 94.5492 105.324 76.0499C107.724 56.8507 104.324 44.7511 98.0246 39.3513ZM100.125 74.55C98.2246 90.0494 86.9251 91.0493 84.8252 91.6493C83.9252 91.9493 75.7255 93.9492 65.3259 93.3492C65.3259 93.3492 57.6262 102.649 55.1263 105.149C54.7263 105.549 54.3263 105.649 54.0263 105.649C53.6263 105.549 53.5264 105.049 53.5264 104.349C53.5264 103.349 53.6264 91.5493 53.6264 91.5493C38.5269 87.3495 39.4269 71.5501 39.5269 63.2504C39.7269 54.9507 41.2268 48.251 45.8267 43.6511C54.1263 36.1514 71.2257 37.2514 71.2257 37.2514C85.6251 37.3514 92.5248 41.6512 94.1248 43.1512C99.3246 47.751 102.024 58.6506 100.125 74.55Z" fill="white"/>
<path d="M78.4255 62.6523C78.2255 58.8523 76.3255 56.8523 72.6255 56.6523" stroke="white" stroke-width="1.92693" stroke-linecap="round" stroke-linejoin="round"/>
<path d="M83.4257 64.2492C83.5257 60.7492 82.4257 57.7492 80.3257 55.4492C78.1257 53.0492 75.1257 51.7492 71.3257 51.4492" stroke="white" stroke-width="1.92693" stroke-linecap="round" stroke-linejoin="round"/>
<path d="M88.4258 66.2508C88.4258 60.1508 86.5258 55.3508 82.9258 51.8508C79.3258 48.3508 74.8258 46.5508 69.4258 46.5508" stroke="white" stroke-width="1.92693" stroke-linecap="round" stroke-linejoin="round"/>
<path d="M72.8254 75.5495C72.8254 75.5495 74.2253 75.6494 74.9253 74.7495L76.3253 72.9496C77.0252 72.0496 78.6252 71.4496 80.3251 72.3496C81.2251 72.8496 82.825 73.8495 83.825 74.6495C84.9249 75.4494 87.1248 77.2494 87.1248 77.2494C88.2248 78.1493 88.4248 79.4493 87.7248 80.8492C87.0248 82.1492 86.0249 83.3492 84.7249 84.4491C83.725 85.3491 82.725 85.7491 81.7251 85.9491H81.3251C80.9251 85.9491 80.4251 85.849 80.0251 85.749C78.5252 85.3491 76.0253 84.2491 71.7254 81.9492C69.0255 80.4493 66.7256 78.8493 64.8257 77.3494C63.8258 76.5494 62.7258 75.6495 61.7258 74.5495L61.3259 74.1495C60.2259 73.0495 59.3259 72.0496 58.5259 71.0496C57.026 69.1497 55.4261 66.8498 53.9261 64.1499C51.6262 59.95 50.5263 57.4502 50.1263 55.8502C50.0263 55.4502 49.9263 55.0503 49.9263 54.5503V54.1503C50.0263 53.1503 50.5262 52.1503 51.4262 51.1504C52.5262 49.9504 53.7261 48.9505 55.0261 48.1505C56.426 47.4505 57.726 47.6505 58.6259 48.7505C58.6259 48.7505 60.4259 50.9504 61.2258 52.0504C61.9258 53.0503 62.9258 54.6503 63.5257 55.5502C64.4257 57.1502 63.8257 58.8501 63.0258 59.5501L61.2258 60.95C60.3259 61.65 60.4259 63.0499 60.4259 63.0499C60.4259 63.0499 62.9258 72.9496 72.8254 75.5495Z" fill="white"/>
</g>
<defs>
<clipPath id="clip0_584_1300">
<rect width="72.2152" height="76.2069" fill="white" transform="translate(33.8926 31.8984)"/>
</clipPath>
</defs>
</svg>
