<svg width="140" height="140" viewBox="0 0 140 140" fill="none" xmlns="http://www.w3.org/2000/svg">
<rect width="140" height="140" rx="50" fill="#27D045"/>
<path d="M69.9998 100.863C87.4366 100.863 101.572 86.7276 101.572 69.2908C101.572 51.854 87.4366 37.7188 69.9998 37.7188C52.563 37.7188 38.4277 51.854 38.4277 69.2908C38.4277 86.7276 52.563 100.863 69.9998 100.863Z" stroke="white" stroke-width="5.44346"/>
<path d="M41.1496 87.2548L36.1416 105L54.5405 99.8836L55.5202 94.2224L43.5446 98.0328L46.7019 86.6016L41.1496 87.2548Z" fill="white"/>
<path d="M43.3267 98.1439C43.3267 98.0351 47.1371 85.4062 47.1371 85.4062L56.2821 94.0069L43.3267 98.1439Z" fill="#27D045"/>
<path d="M56.3567 53.653C55.2451 54.4243 54.2974 55.4084 53.5686 56.5483C52.8398 57.6882 52.3443 58.9613 52.1107 60.294C51.5664 64.5399 54.1793 68.8947 54.1793 68.8947C56.8297 72.8379 59.9764 76.4237 63.542 79.5639C66.6611 82.032 70.2023 83.9132 73.9934 85.1162C76.2049 85.9991 78.624 86.2259 80.9611 85.7694C83.0325 85.2008 84.8651 83.979 86.1867 82.2856C86.4964 81.5152 86.7158 80.7114 86.84 79.8905C86.9646 79.17 86.9646 78.4335 86.84 77.7131C86.7312 76.951 78.8926 73.3583 78.1305 73.576C77.3684 73.7938 76.7151 75.2091 75.8441 76.4067C74.9732 77.6042 74.6467 78.1486 73.7757 78.1486C72.9048 78.1486 69.0943 76.6244 65.5016 73.3583C63.4495 71.579 61.8458 69.3411 60.8203 66.8262C60.8203 66.8262 61.4735 66.0641 62.3445 64.8665C63.0222 64.124 63.508 63.227 63.7597 62.2537C63.7597 61.7093 60.7114 53.9796 59.9493 53.653C58.7576 53.4855 57.5484 53.4855 56.3567 53.653Z" fill="white"/>
</svg>
