<svg width="6536" height="3677" viewBox="0 0 6536 3677" fill="none" xmlns="http://www.w3.org/2000/svg">
<path fill-rule="evenodd" clip-rule="evenodd" d="M2536.5 3680L2611 3497.5L2786 3367L2916 3252L3132 3192L3381.5 3144L3493 2987.5L3463 2827.5L3545 2641.5L3575 2790L3675.5 2917L3790.5 3099L3742.5 3315L3675.5 3441.5L3790.5 3523.5L3939.5 3564.5L4036.5 3680H2536.5ZM3064 3450L3022.5 3512.5L3079.5 3484L3146 3467.5L3220 3433.5L3287 3382L3329.5 3315L3270.5 3358.5L3154.5 3402L3064 3450Z" fill="#C42426"/>
<path d="M1838 117L1907.5 0H2497L2446 73L2285 205L2259 307.5L2310.5 425V509L2189.5 696L2010 813L1907.5 912L1955 754.5L2054 619V509L1973.5 377L1867 271L1838 117Z" fill="#C42426"/>
<path d="M6407.5 1880.5L6458 1669L6419.5 1700L6328.5 1718L6255.5 1778L6123 1803.5L5998 1778L5919.5 1851L5857.5 2012.5L5746.5 2091L5623 2063.5L5746.5 2163.5L5869.5 2184L5998 2124.5L6113 1982L6292.5 1945L6407.5 1880.5Z" fill="#FDBB09" stroke="black"/>
<path d="M206.319 1847.54L75.7235 1957.47L257.639 1985.19L361.989 2014.49L289.292 2067.5L241.639 2198.26L320.007 2343.54L505.817 2370.33L571.673 2198.26L738.552 2106.28L999.017 2067.5L1102.62 1985.19L1263.77 1817.31L1132.23 1881.01L924.267 1912.82L744.014 1868.04L488.012 1812.26L320.007 1849.15L206.319 1847.54Z" fill="#FDBB09"/>
<path d="M5328 858L5692.5 687.5L5918.5 498L6067 213.5L6067 0L5553 -4.49353e-05L5502.5 101L5350 233L5313.5 357.5L5200.5 479L5250.5 282L5235 179.5L5171.5 -7.82871e-05L5100.5 313L4944 479L4797 829.5L4437 1090L4944 976.5L5297 776.5L5522 550L5502.5 661.5L5328 858Z" fill="#C42426"/>
<path d="M1103.7 3091.5L1164.42 3013.74L1083.62 3086.9L1048.36 3107.42L999.683 3141.13L1000.61 3199.53L980.154 3226.37L979.242 3265.82L941.546 3306.92L861.396 3323.33L807.235 3359.68L752.102 3381.83L731.799 3443.49L740.489 3517.65L720.604 3573.23L800.405 3531.37L874.817 3415.15L917.493 3384.94L1006.4 3321.78L1027.73 3276.93L1058.3 3232.9L1049.88 3180.26L1073.86 3129.52L1103.7 3091.5Z" fill="white"/>
<path d="M4356.72 491.481L4332.67 592.694L4392.31 500.752L4519.8 399.975L4588.99 339.365L4625 310.56L4596.4 309.659L4617.93 223.368L4589.93 91.7298L4570.16 -59.9999L4541.84 87.7566L4558.45 191.955L4506.74 285.758L4445.57 359.64L4426.78 430.382L4356.72 491.481Z" fill="white"/>
</svg>
