<svg width="6536" height="3677" viewBox="0 0 6536 3677" fill="none" xmlns="http://www.w3.org/2000/svg">
<g clip-path="url(#clip0_369_168)">
<path d="M1800.5 3416.5L1730 3493L1827 3442L1987.5 3416.5L2077.5 3397.5L2123 3390L2098.5 3375.22L2159.5 3310.5L2199.5 3182L2256.5 3040L2159.5 3155L2123 3254L2032 3310.5L1942.5 3345L1891.5 3397.5L1800.5 3416.5Z" fill="white"/>
<path d="M2549.33 3454.4L2316 3687.73H3632.53L3582.58 3535.9L3632.53 3319L3543.8 2943.69L3594.41 2684.07L3537.88 2465.85L3464.27 2302.84L3396.57 2204.91L3449.15 2399.46L3419.57 2642L3219.1 3009.42L2885.86 3392.61L2707.08 3470.17L2591.4 3516.18L2549.33 3454.4Z" fill="#215130"/>
<path d="M3219.1 2723L3140 2684.07L3042.5 2580.5L3028.5 2413L3068 2465.85L3140 2522.5L3180 2592.5L3219.1 2723Z" fill="#215130"/>
<path fill-rule="evenodd" clip-rule="evenodd" d="M4283 1612.24L4683.89 1545L5136.2 1638.6L5370.27 1737.48L5630.71 1883.16L5875.33 1945.12L5999.95 2184.41L6057.31 2309.65L6228.74 2517.29L6384 2586.5L6536 2756.58V3688H5313.56L5370.27 3562.76L5389.39 3378.84L5370.27 3194.93L5389.39 2998L5450.5 3086.5L5502.8 3194.93V3074.3L5421.7 2805.36L5370.27 2662.5L5280 2453L5330.71 2388.75L5195.54 2165.95L4960.81 1883.16L4683.89 1717.71L4486.74 1670.24H4330.47L4283 1612.24ZM5534.5 2294.5L5450.5 2165.95L5586.5 2294.5L5633.5 2466L5534.5 2294.5ZM5750.5 3053.5L5779 3168L5875.33 3337L5922 3503.5L5909 3306L5867.5 3155L5812.5 3121.5L5750.5 3053.5ZM6200 3121.5L6057.31 2827.5L6228.74 3105.5L6291 3246L6200 3121.5Z" fill="#215130"/>
<path d="M6189.5 2147.5L6262.5 2351.5L6384 2453L6316 2294.5L6189.5 2147.5Z" fill="#215130"/>
<path d="M1344.97 585.103L1159.52 547.315L912.634 452.672L694.134 271.444L560.634 35.4444L512.141 -98.1291L1084.64 -98.1293L1137.14 35.4444L1251.14 117.5L1362.64 154.5L1441.99 222.5L1477.58 271.444L1451.64 218.5L1424.64 170L1392.64 148L1329.14 105L1277.64 55L1273.14 11.5L1308.64 -98.1294L1878.58 -98.1296L1984.68 183.098L2019.46 394.859L1989.76 531.29L1964.87 550.405L1952.59 452.672L1928.22 395.879L1891.18 345.045L1845.38 294.358L1977.37 696.761L2167.26 1059.85L2361.14 1308.04L2416.13 1339.79L2436.25 1403.95L2540.61 1464.2L2628.94 1515.2L2668.15 1567.28L2633.6 1583.13L2570.39 1557.61L2493.11 1546.47L2357.57 1468.22L2285.03 1463.87L2228.97 1393.97L2033.46 1247.61L1892.91 1070.04L1717.21 918.371L1575.76 718.353L1525.21 623.923L1477.58 596.423L1474.49 621.774L1515.13 713.37L1550.51 762.087L1564.38 781.065L1536.24 764.815L1482.53 722.838L1441.99 678.066L1415.98 626.103L1344.97 585.103Z" fill="#215130"/>
<path d="M2535.2 438.023L2626.58 483.293L2589.85 423.38L2532.97 365.421L2500.11 307.057L2401.75 255.045L2318.16 216.302L2288.88 107.03L2172.93 89.0113L2108.36 53.7814L2107.88 193.42L2152.37 295.171L2236.23 325.233L2353.03 346.465L2489.12 397.841L2535.2 438.023Z" fill="white"/>
<path d="M6140.71 1627.59L6040.85 1745.75L6114.21 1693.59L6164.57 1685.03L6198.33 1645.48L6309.5 1614.16L6414.68 1490.95L6426.27 1410.77L6487.57 1306.64L6414.68 1330.09L6332.21 1394.59L6243.85 1570.61L6140.71 1627.59Z" fill="white"/>
<path d="M122.5 1572L0 1472V1762.5L53.5 1771.5L86 1750L265.5 1839L414 1802L463.5 1750L425 1762.5L311.5 1771.5L222 1699L122.5 1572Z" fill="white"/>
<path d="M5990.42 2.73093L6163.15 -40.4682L5608.57 -21.017L5497.14 54.014L5446.55 108.322L5453.21 57.3318L5490.61 -32.4417L5379.75 -24.0681L5258.88 167.374L5287.64 195.353L5237.5 227.889L5235.92 290.416L5169.62 378.165L5119.33 408.61L5098.81 434L5196.02 402.817L5260.56 347.456L5479.48 219.429L5655.07 167.6L5990.42 2.73093Z" fill="#215130"/>
</g>
<defs>
<clipPath id="clip0_369_168">
<rect width="6536" height="3677" fill="white"/>
</clipPath>
</defs>
</svg>
