<svg width="6536" height="3677" viewBox="0 0 6536 3677" fill="none" xmlns="http://www.w3.org/2000/svg">
<path fill-rule="evenodd" clip-rule="evenodd" d="M2254.09 -164L2322.87 -50.5738L2349.83 72.1496L2669.57 250.656V200.451L2842.46 286.916L3042.3 471.93L3263.52 731.323L3389 967.473L3534.93 1146.91L3573.97 1278L3502.4 1173.87L3328.58 1044.64L3197.52 907.97L3042.3 806.631L2881.5 788.036L2510.63 636.491L2349.83 617.897L1988.26 471.93H1839.54L1517.01 328.753H1326.46L836.467 200.451L528.967 -164H1217.47L1517.01 39.5L1636.97 55.5L1776.97 125.5L1839.54 176.5L1805.97 120.5L1710.47 49L1666.97 -12.5L1535.47 -164H2254.09ZM2601.47 388.5L2492.47 360.5L2581.47 421L2669.57 471.93L2601.47 388.5Z" fill="#FFBB00"/>
<path d="M2149.82 601L2267.82 658.5L2394.32 700.5L2283.82 693.892L2289.32 709.5L2243.82 691.5L2149.82 601Z" fill="#FFBB00"/>
<path d="M884.277 3101.41L681.362 3273.53L510.862 3348.03L385.862 3458.53L358.862 3414.53L373.362 3348.03L373.362 3304.53L218.229 3483.47L-36.2705 3816.97L557.963 3816.97L633.362 3628.53L744.355 3510.53L861.855 3414.53L794.855 3501.03L762.856 3546.03L762.856 3591.03L722.855 3645.53L722.855 3682.53L722.856 3816.97L1152.2 3816.97L1226.86 3727.03L1226.86 3510.53L1094.06 3074.66L1152.2 2632.84L1334.63 2404.03L1101.09 2552.38L910.83 2833.9L884.277 3101.41Z" fill="#FFBB00"/>
<path d="M556.362 3155.53L525.862 3254.03L579.862 3200.03L593.862 3155.53L633.362 3101.41L658.862 3074.66L622.362 3092.53L556.362 3155.53Z" fill="#FFBB00"/>
<path d="M3293.45 3211.46L3344.65 3342.37L3419.66 3423.34L3405.16 3306.5L3419.66 3193L3442.07 3257L3500.16 3389L3562.66 3445.53L3607.16 3445.53L3777.66 3505L3943.73 3535.69L3913.99 3445.53L3809.8 3417.77L3750.72 3342.37L3577.72 3211.46L3518.41 3059.25L3442.07 2984.62L3354.38 2889.64L3317.74 2752.05L3293.45 2889.32L3324.46 2966.22L3325.01 3066.09L3293.45 3211.46Z" fill="#FFBB00"/>
<path d="M4771.57 1740.11L4549 1761.21L4771.57 1795.73L4874.59 1942.44L5022.13 2139.49L5251.69 2371.55L5640.8 2501L6217.44 2371.55L6472.5 2438L6444.5 2456L6381 2471.5L6331 2461L6419.5 2517L6549.5 2523.5L6626 2477.99V2048.4L6461.45 2025.38L6325.91 2048.4L6177.39 2025.38L6094.83 1977.92H6202.37L6373.92 1942.44L6492.47 1837.44L6626 1761.21L6626 1522.44L6409.46 1542.58L6339.91 1561.27L6390.93 1522.44L6626 1451V1241L6508.97 1309.56L6424.94 1322.03L6360.93 1362.3H6437.95L6492.47 1372.85L6409.46 1404.01L6177.39 1501.82L5941.32 1707.51L5503.18 1819.22L5323.25 1876.76L5115.18 1837.44L4987.14 1779.43L4771.57 1740.11Z" fill="#FFBB00"/>
<path d="M1564.69 2001.25L1384.16 1906.24L1590.63 1887.08L1762.25 1848.9L1876.42 1793.27L2052.98 1797.2L2169.1 1822.06L2053.98 1823.23L1940.61 1851.95L1840.93 1927.04L1564.69 2001.25Z" fill="#D9D9D9"/>
<path d="M1564.69 2001.25L1384.16 1906.24L1590.63 1887.08L1762.25 1848.9L1876.42 1793.27L2052.98 1797.2L2169.1 1822.06L2053.98 1823.23L1940.61 1851.95L1840.93 1927.04L1564.69 2001.25Z" fill="#FFBB00"/>
<path d="M5588.52 385.092L5314 623.359L5413.79 605.826L5454.53 570.449L5720.27 512.201L5844.66 523.534L5713.98 565.131L5857.06 577.829L6024 541.698L6060.93 499.274L6231.88 444.26L6464.52 311.22L6261.07 347.883L6213.54 381.073L5855.74 415.12L5993.88 327.821L6051.11 262.065L5973.08 267.462L6135.83 151.88L6192.95 74.8363L6013.99 167.616L5816.04 312.211L5588.52 385.092Z" fill="#FFBB00"/>
</svg>
