<svg width="400" height="618" viewBox="0 0 400 618" fill="none" xmlns="http://www.w3.org/2000/svg">
<path d="M305.882 317.646C357.862 317.646 400 359.784 400 411.763V417.646H305.882C357.862 417.646 400 459.784 400 511.763V523.528C400 575.508 357.862 617.646 305.882 617.646H94.1176C42.1379 617.646 5.77614e-06 575.508 0 523.528V411.763C6.87229e-06 359.784 42.1379 317.646 94.1176 317.646H156.146V322.708L158.437 334.688L156.875 348.125L159.896 353.438V359.688L156.875 363.958L156.146 371.042L151.25 391.042L145.521 398.75L141.354 414.167L134.583 424.479L127.812 436.354L121.667 453.125L119.687 458.958V463.75H269.792L270.833 459.688L268.854 455.625L262.187 437.917L248.542 414.167L243.229 398.75L235.417 390L230.521 380.521V365.521L229.479 359.688L227.708 351.354L226.667 348.125L227.708 346.25V344.271L226.667 341.563L227.708 339.063L228.437 332.396L229.479 326.458L231.146 324.271L230.521 320.625L232.417 317.646H305.882Z" fill="black"/>
<path d="M305.882 0C357.862 5.15422e-06 400 42.1379 400 94.1176V105.882C400 157.862 357.862 200 305.882 200H400V300H237.006L237.083 299.479L242.5 285.625L244.271 282.187L247.187 269.479L250 261.562V257.604L251.146 255.521L253.125 242.083L254.583 236.25L257.083 228.229L259.896 222.812L261.667 217.396L263.229 210L264.479 208.229L269.271 196.458L270.208 189.167V182.812L271.875 179.062L274.583 173.958L276.354 166.562L277.708 156.042L280.937 149.271V146.354L279.792 144.167V140.312L277.708 135.833V129.896L276.354 128.125L274.583 128.854L271.875 132.187H270.208L268.437 123.75L266.771 118.854L263.333 110.833L258.854 101.667L253.437 95.7292L251.146 92.6042L247.396 87.7083L241.146 81.7708L234.167 77.1875L227.708 73.4375L221.667 70.9375L214.271 68.9583L204.271 67.2917L193.542 66.6667L184.792 67.2917L177.083 68.9583L169.896 71.6667L163.437 74.7917L155.833 79.2708L151.146 82.9167L146.042 88.3333L140.625 93.9583L136.875 99.0625L133.021 105.208L130 111.667L128.021 117.187L125.417 124.375L123.646 133.333V142.292L124.583 150.937H121.562L119.792 153.229L119.167 161.875L119.792 170.833L131.146 203.542L131.979 206.771L134.479 232.083L139.271 251.875L144.583 271.875L156.146 291.771V300H0V194.118C7.30181e-06 142.138 42.1379 100 94.1176 100H0V94.1176C6.87229e-06 42.1379 42.1379 7.06535e-06 94.1176 0H305.882Z" fill="black"/>
<path d="M161.573 500.417H179.99V558.365H161.573M111.458 500.417H156.26L151.656 513.176H129.875V524.872H147.406L142.802 537.631H129.875V558.542H111.458M192.208 500.417H237.01L232.406 513.176H210.625V524.872H228.156L223.552 537.631H210.625V558.542H192.208M248.698 500.417L227.625 558.542H245.51L247.812 550.922H268.354L270.656 558.542H288.542L267.469 500.417M258.083 515.834L264.99 539.403H251.177" fill="white"/>
</svg>
