<svg width="5350" height="3677" viewBox="0 0 5350 3677" fill="none" xmlns="http://www.w3.org/2000/svg">
<path d="M1066.5 3464L1040.5 3708H1897.5L1794.5 3464L1876 3202.5L2107.5 2903L2133 2714.5V2380L2060 2577L1876 2817L1644.5 2950L1323.5 3147L1186 3352.5L1147.5 3275.5L1066.5 3464Z" fill="#0D2A4C"/>
<path d="M171.023 1934.67L0 1823.45L207.354 1823.36L381.758 1801.14L500.56 1756.25L676.01 1776.41L789.351 1811.84L674.613 1802.41L559.079 1820.59L452.912 1886.19L171.023 1934.67Z" fill="#D9D9D9"/>
<path d="M171.023 1934.67L0 1823.45L207.354 1823.36L381.758 1801.14L500.56 1756.25L676.01 1776.41L789.351 1811.84L674.613 1802.41L559.079 1820.59L452.912 1886.19L171.023 1934.67Z" fill="#162149"/>
<path d="M2875.5 83.5L2822 -81.5H3907.5L4125.5 214.5L4251.5 732.5L4193.5 1348L4033.5 1663L3801 1818L3907.5 1609.5V994.5L3757.5 582.5L3486 340L3166 214.5L2875.5 83.5Z" fill="#0D2A4C"/>
<path d="M3153.5 328L3082.5 265L3099 355L3121 434V543L3166 434L3153.5 328Z" fill="#0D2A4C"/>
<path d="M5262.5 3462L5350 3691H4878V3642.5L4844 3525.5L4722 3418.5L4756 3584L4722 3691H4318L4352 3418.5L4181.5 3189.5L4055 3014.5V2810L4230.5 2941L4673.5 3072.5L4965.5 3189.5L5262.5 3462Z" fill="#EFF7FF"/>
<path d="M1116.58 109.224L889 43.2734L976.067 135.023L1123.68 299.825L1351.1 440.837L1688.71 519.291L1869.59 715.981L1867.91 552.28L1715.89 261.313L1435.91 111.676L1116.58 109.224Z" fill="#EFF7FF"/>
<path d="M2169.5 1721L2047 1614L2101 1721L2144.5 1829.5L2322.5 1852L2424 1927L2592.5 1863.5H2424L2322.5 1761.5L2169.5 1721Z" fill="white"/>
</svg>
